<svg width="24" height="25" viewBox="0 0 24 25" fill="none" xmlns="http://www.w3.org/2000/svg">
<g id="carbon:phone">
<path id="Vector" d="M19.5 22.25H19.3725C4.635 21.4025 2.5425 8.9675 2.25 5.1725C2.22643 4.87744 2.26132 4.58062 2.35266 4.29906C2.444 4.0175 2.59 3.75673 2.78229 3.53169C2.97458 3.30665 3.20939 3.12177 3.47326 2.98763C3.73713 2.85349 4.02487 2.77274 4.32 2.75H8.4525C8.75292 2.74971 9.0465 2.83963 9.29523 3.00812C9.54395 3.17661 9.73635 3.4159 9.8475 3.695L10.9875 6.5C11.0973 6.77266 11.1245 7.07156 11.0658 7.35957C11.0072 7.64758 10.8652 7.912 10.6575 8.12L9.06 9.7325C9.30954 11.1506 9.98864 12.4578 11.0054 13.4772C12.0222 14.4967 13.3276 15.1792 14.745 15.4325L16.3725 13.82C16.5836 13.6146 16.8505 13.4759 17.14 13.4213C17.4294 13.3666 17.7285 13.3983 18 13.5125L20.8275 14.645C21.1024 14.7597 21.3369 14.9536 21.5012 15.202C21.6655 15.4504 21.7521 15.7422 21.75 16.04V20C21.75 20.5967 21.513 21.169 21.091 21.591C20.669 22.0129 20.0967 22.25 19.5 22.25ZM4.5 4.25C4.30109 4.25 4.11032 4.32902 3.96967 4.46967C3.82902 4.61032 3.75 4.80109 3.75 5V5.06C4.095 9.5 6.3075 20 19.455 20.75C19.5535 20.7561 19.6523 20.7427 19.7456 20.7105C19.839 20.6783 19.925 20.6281 19.9989 20.5626C20.0727 20.4971 20.1329 20.4176 20.176 20.3288C20.2191 20.24 20.2443 20.1436 20.25 20.045V16.04L17.4225 14.9075L15.27 17.045L14.91 17C8.385 16.1825 7.5 9.6575 7.5 9.59L7.455 9.23L9.585 7.0775L8.46 4.25H4.5Z" fill="#FF8000"/>
</g>
</svg>
