<svg width="64" height="64" viewBox="0 0 64 64" fill="none" xmlns="http://www.w3.org/2000/svg">
<circle cx="32" cy="32" r="32" fill="white"/>
<path fill-rule="evenodd" clip-rule="evenodd" d="M32 13.6667C21.875 13.6667 13.6666 21.875 13.6666 32C13.6666 42.125 21.875 50.3333 32 50.3333C42.125 50.3333 50.3333 42.125 50.3333 32C50.3333 21.875 42.125 13.6667 32 13.6667ZM39.9466 28.9C40.093 28.7327 40.2044 28.5379 40.2743 28.3269C40.3442 28.116 40.3712 27.8932 40.3537 27.6716C40.3363 27.4501 40.2747 27.2343 40.1726 27.0369C40.0705 26.8395 39.9299 26.6645 39.7592 26.5222C39.5885 26.38 39.391 26.2733 39.1785 26.2084C38.9659 26.1436 38.7425 26.1219 38.5214 26.1447C38.3004 26.1675 38.0861 26.2342 37.8912 26.341C37.6963 26.4479 37.5248 26.5926 37.3866 26.7667L30.22 35.365L26.5116 31.655C26.1973 31.3514 25.7763 31.1834 25.3393 31.1872C24.9023 31.191 24.4843 31.3663 24.1753 31.6753C23.8662 31.9843 23.691 32.4023 23.6872 32.8393C23.6834 33.2763 23.8514 33.6973 24.155 34.0117L29.155 39.0117C29.3187 39.1753 29.5148 39.3031 29.7307 39.3868C29.9465 39.4704 30.1775 39.5082 30.4087 39.4977C30.64 39.4872 30.8666 39.4287 31.074 39.3257C31.2814 39.2228 31.465 39.0778 31.6133 38.9L39.9466 28.9Z" fill="#FF8000"/>
</svg>
